<svg height="1024" node-id="1" sillyvg="true" template-height="1024" template-width="1024" version="1.1" viewBox="0 0 1024 1024" width="1024" xmlns="http://www.w3.org/2000/svg" xmlns:xlink="http://www.w3.org/1999/xlink"><defs node-id="30"></defs><path d="M 296.96 -120.98 C 13.91 -120.98 -215.54 95.04 -215.54 361.52 C -215.54 628.00 13.91 844.02 296.96 844.02 C 580.01 844.02 809.46 628.00 809.46 361.52 C 809.46 95.04 580.01 -120.98 296.96 -120.98 Z M 202.73 253.87 C 274.48 253.87 343.66 251.42 415.41 256.31 C 343.73 251.45 274.48 253.87 202.73 253.87 Z" fill="#93ede7" fill-rule="nonzero" node-id="32" stroke="none" target-height="965.0002" target-width="1025.0002" target-x="-215.54144" target-y="-120.97814"/><path d="M 798.28 -239.47 C 703.16 -239.60 609.44 -215.97 525.20 -170.60 C 516.41 -129.66 511.99 -87.85 512.00 -45.92 C 512.00 272.73 763.53 531.06 1073.80 531.06 C 1183.85 531.23 1291.51 498.05 1383.28 435.66 C 1385.92 412.35 1387.24 388.89 1387.25 365.42 C 1387.25 31.35 1123.56 -239.47 798.28 -239.47 Z M 689.99 230.46 C 772.45 230.46 851.95 227.39 934.40 233.53 C 852.02 227.43 772.45 230.46 689.99 230.46 Z" fill="#c1f8f4" fill-rule="nonzero" node-id="34" stroke="none" target-height="770.8343" target-width="875.2605" target-x="511.98935" target-y="-239.60106"/><path d="M 750.21 177.77 C 764.07 142.82 747.54 103.19 712.95 88.45 C 678.36 73.72 638.33 89.25 622.72 123.46 C 606.33 111.09 583.93 110.38 566.77 121.67 C 549.62 132.96 541.41 153.82 546.28 173.77 C 528.40 179.38 517.30 197.20 520.14 215.72 C 522.98 234.24 538.92 247.92 557.66 247.91 L 727.20 247.91 C 727.71 247.89 728.22 247.84 728.72 247.77 C 729.21 247.77 729.72 247.85 730.19 247.85 C 747.11 247.83 761.96 236.61 766.61 220.35 C 771.26 204.09 764.57 186.71 750.21 177.77 Z" fill="#ffffff" fill-rule="nonzero" node-id="36" stroke="none" target-height="174.19775" target-width="253.95709" target-x="517.29834" target-y="73.71911"/><path d="M -84.33 969.09 C -84.33 969.09 262.15 1066.90 330.53 1026.49 L 330.53 1129.60 L -5.47 1153.00 Z" fill="#5ea55c" fill-rule="nonzero" node-id="38" stroke="none" target-height="183.90997" target-width="414.86002" target-x="-84.33001" target-y="969.08844"/><path d="M 1051.00 696.99 C 957.13 702.06 845.50 748.39 756.15 808.10 C 771.22 808.45 786.36 809.10 801.64 810.17 C 786.36 809.08 771.22 808.45 756.15 808.10 C 721.08 831.53 689.44 857.03 663.66 882.91 C 621.28 925.43 594.72 968.96 594.72 1006.03 C 594.72 1038.76 605.94 1070.03 625.77 1098.55 C 676.30 1171.24 782.77 1225.99 901.94 1241.18 C 1023.02 1173.83 1104.94 1044.60 1104.94 896.18 C 1105.04 826.17 1086.42 757.39 1051.00 696.99 Z" fill="#8bc852" fill-rule="nonzero" node-id="40" stroke="none" target-height="544.18994" target-width="510.31927" target-x="594.72003" target-y="696.9934"/><path d="M -80.18 399.92 C -72.12 448.83 -58.38 496.56 -39.27 542.11 C 54.04 764.39 269.18 920.00 519.72 920.00 C 770.26 920.00 985.40 764.39 1078.71 542.11 C 1097.82 496.56 1111.56 448.83 1119.62 399.92 Z" fill="#f4dd45" fill-rule="nonzero" node-id="42" stroke="none" target-height="520.0801" target-width="1199.8002" target-x="-80.18015" target-y="399.91995"/><path d="M 874.38 673.62 C 886.77 644.89 895.67 614.77 900.90 583.92 L 897.34 583.92 L 757.34 826.41 C 808.33 785.88 848.53 733.40 874.38 673.62 Z" fill="#ecbe6b" fill-rule="nonzero" node-id="44" stroke="none" target-height="242.48999" target-width="143.56" target-x="757.34" target-y="583.92"/><path d="M 267.10 116.98 C 280.78 82.08 264.24 42.63 229.76 27.93 C 195.27 13.22 155.35 28.60 139.64 62.64 C 123.24 50.31 100.87 49.61 83.73 60.89 C 66.59 72.17 58.38 93.00 63.21 112.94 C 45.35 118.56 34.26 136.38 37.10 154.89 C 39.95 173.40 55.88 187.07 74.60 187.07 L 244.08 187.07 C 244.58 187.07 245.07 187.04 245.56 186.99 C 246.05 186.99 246.56 187.07 247.03 187.07 C 263.96 187.08 278.85 175.87 283.51 159.59 C 288.17 143.32 281.47 125.93 267.10 116.98 Z" fill="#dafffb" fill-rule="nonzero" node-id="46" stroke="none" target-height="173.85669" target-width="253.90962" target-x="34.25978" target-y="13.224847"/><path d="M -4.96 839.24 C -86.17 992.76 -57.48 1181.32 65.72 1303.73 C 140.15 1290.99 209.65 1263.06 259.07 1226.21 C 239.24 1197.70 228.02 1166.42 228.02 1133.69 C 228.02 1096.62 254.58 1053.09 296.96 1010.57 C 239.72 919.65 136.52 870.75 -4.96 839.24 Z" fill="#4f8980" fill-rule="nonzero" node-id="48" stroke="none" target-height="464.49" target-width="383.13327" target-x="-86.1746" target-y="839.2429"/><path d="M 218.84 296.63 L 202.63 296.63 C 196.13 296.62 190.65 291.74 189.90 285.28 L 170.79 118.99 C 170.38 115.36 171.53 111.72 173.96 109.00 C 176.39 106.27 179.87 104.72 183.52 104.72 L 236.62 104.72 C 240.26 104.72 243.72 106.26 246.15 108.96 C 248.58 111.67 249.75 115.27 249.36 118.89 L 231.58 285.18 C 230.89 291.69 225.39 296.62 218.84 296.63 Z" fill="#523838" fill-rule="nonzero" node-id="50" stroke="none" target-height="191.91098" target-width="79.37213" target-x="170.37872" target-y="104.71588"/><path d="M 260.37 376.96 L 239.16 330.20 L 175.76 330.20 L 156.30 377.20 C 191.36 377.05 225.72 376.30 260.37 376.96 Z" fill="#b48255" fill-rule="nonzero" node-id="52" stroke="none" target-height="47" target-width="104.06999" target-x="156.30089" target-y="330.19696"/><path d="M 345.36 569.60 L 258.36 377.46 C 223.71 376.80 189.36 377.55 154.29 377.67 L 74.77 569.60 Z" fill="#664545" fill-rule="nonzero" node-id="54" stroke="none" target-height="192.80002" target-width="270.59" target-x="74.77499" target-y="376.79947"/><path d="M 235.26 392.85 C 217.62 392.80 199.99 392.98 182.26 393.14 L 169.06 508.14 C 168.65 511.77 169.80 515.40 172.23 518.13 C 174.66 520.85 178.14 522.41 181.79 522.41 L 234.89 522.41 C 238.52 522.41 241.99 520.87 244.42 518.17 C 246.85 515.46 248.02 511.86 247.63 508.24 Z" fill="#523838" fill-rule="nonzero" node-id="56" stroke="none" target-height="129.61069" target-width="79.368835" target-x="168.6469" target-y="392.8019"/><path d="M 235.97 392.55 L 230.52 341.64 C 229.82 335.13 224.32 330.20 217.78 330.19 L 201.57 330.19 C 195.05 330.20 189.58 335.08 188.84 341.55 L 182.96 392.85 C 200.73 392.68 218.33 392.55 235.97 392.55 Z" fill="#523838" fill-rule="nonzero" node-id="58" stroke="none" target-height="62.660004" target-width="53.01001" target-x="182.955" target-y="330.19196"/><path d="M 198.52 282.15 L 198.52 298.36 C 198.52 304.87 193.64 310.35 187.17 311.09 L 20.83 330.17 C 17.20 330.59 13.57 329.44 10.84 327.01 C 8.12 324.58 6.56 321.10 6.56 317.44 L 6.56 264.34 C 6.56 260.70 8.11 257.23 10.82 254.80 C 13.54 252.36 17.16 251.20 20.78 251.60 L 187.12 269.41 C 193.61 270.14 198.52 275.62 198.52 282.15 Z" fill="#523838" fill-rule="nonzero" node-id="60" stroke="none" target-height="79.387405" target-width="191.96223" target-x="6.5578" target-y="251.20384"/><path d="M 230.28 282.15 L 230.28 298.36 C 230.28 304.87 235.16 310.34 241.63 311.09 L 407.97 330.17 C 411.60 330.59 415.23 329.43 417.96 327.00 C 420.68 324.57 422.24 321.09 422.24 317.44 L 422.24 264.34 C 422.24 260.71 420.70 257.24 417.99 254.81 C 415.29 252.38 411.68 251.21 408.07 251.60 L 241.73 269.41 C 235.22 270.11 230.28 275.60 230.28 282.15 Z" fill="#523838" fill-rule="nonzero" node-id="62" stroke="none" target-height="79.37215" target-width="191.96098" target-x="230.28001" target-y="251.21416"/><path d="M 849.14 569.60 L 661.56 894.50 C 732.92 885.43 800.42 856.93 856.69 812.09 L 996.69 569.60 Z" fill="#f4dd45" fill-rule="nonzero" node-id="64" stroke="none" target-height="324.90002" target-width="335.13" target-x="661.555" target-y="569.5995"/><path d="M 873.20 403.10 L 714.10 678.68 C 753.05 701.15 795.58 716.75 839.83 724.80 L 1025.56 403.10 Z" fill="#ecbe6b" fill-rule="nonzero" node-id="66" stroke="none" target-height="321.7" target-width="311.46002" target-x="714.10004" target-y="403.09625"/><path d="M 198.52 583.92 L 148.42 670.70 C 148.82 671.70 149.21 672.65 149.62 673.62 C 168.90 718.24 196.24 758.92 230.28 793.62 L 351.34 583.92 Z" fill="#f4dd45" fill-rule="nonzero" node-id="68" stroke="none" target-height="209.70001" target-width="202.92" target-x="148.42" target-y="583.92"/><path d="M -12.90 403.10 C -7.85 432.91 0.65 462.03 12.42 489.88 L 62.52 403.10 Z" fill="#ecbe6b" fill-rule="nonzero" node-id="70" stroke="none" target-height="86.78" target-width="75.42" target-x="-12.9" target-y="403.09625"/><path d="M 432.52 399.92 L 311.46 609.61 C 336.66 635.34 365.26 657.51 396.46 675.50 L 555.56 399.92 Z" fill="#ecbe6b" fill-rule="nonzero" node-id="72" stroke="none" target-height="275.58002" target-width="244.1" target-x="311.46" target-y="399.91998"/><path d="M 645.03 399.92 L 459.27 721.62 C 499.26 728.87 540.13 729.95 580.45 724.82 L 768.03 399.92 Z" fill="#ecbe6b" fill-rule="nonzero" node-id="74" stroke="none" target-height="330.02808" target-width="308.76" target-x="459.2713" target-y="399.91998"/><path d="M 249.88 292.02 C 249.88 314.34 231.78 332.44 209.46 332.44 C 187.14 332.44 169.04 314.34 169.04 292.02 C 169.04 269.69 187.14 251.60 209.46 251.60 C 231.78 251.60 249.88 269.69 249.88 292.02 Z" fill="#664545" fill-rule="nonzero" node-id="76" stroke="none" target-height="80.84001" target-width="80.84" target-x="169.04001" target-y="251.59804"/><path d="M 230.28 290.90 C 230.28 302.06 221.23 311.11 210.07 311.11 C 198.91 311.11 189.86 302.06 189.86 290.90 C 189.86 279.73 198.91 270.69 210.07 270.69 C 221.23 270.69 230.28 279.73 230.28 290.90 Z" fill="#b48255" fill-rule="nonzero" node-id="78" stroke="none" target-height="40.419983" target-width="40.42" target-x="189.86003" target-y="270.68503"/></svg>