<?xml version="1.0" standalone="no"?><!DOCTYPE svg PUBLIC "-//W3C//DTD SVG 1.1//EN" "http://www.w3.org/Graphics/SVG/1.1/DTD/svg11.dtd"><svg t="1712376394683" class="icon" viewBox="0 0 1792 1024" version="1.1" xmlns="http://www.w3.org/2000/svg" p-id="9760" xmlns:xlink="http://www.w3.org/1999/xlink" width="350" height="200"><path d="M64 0h1664c35.2 0 64 28.8 64 64v896c0 35.2-28.8 64-64 64H64c-35.2 0-64-28.8-64-64V64C0 28.8 28.8 0 64 0z" fill="" p-id="9761" data-spm-anchor-id="a313x.search_index.0.i13.51933a81kls3Ce" class="selected"></path><path d="M592.64 505.6m-151.68 0a151.68 151.68 0 1 0 303.36 0 151.68 151.68 0 1 0-303.36 0Z" fill="#08BB06" p-id="9762"></path><path d="M524.6272 508.8256l-6.4 7.04c-0.64 0.64-0.64 1.92 0 2.56l47.36 46.72c0.64 0.64 1.92 0.64 2.56 0l101.12-107.52c0.64-0.64 0.64-1.92 0-2.56l-5.76-5.12c-0.64-0.64-1.92-0.64-2.56 0l-94.72 83.84-39.68-25.6c-0.64 0-1.28 0-1.92 0.64z" fill="#FFFFFF" p-id="9763"></path><path d="M872.32 449.92v35.84h42.88v8.32h-42.88v49.28h52.48v8.32h-102.4v-8.32h41.6V449.92h8.32zM940.8 505.6l-2.56-8.96c12.16-13.44 21.12-29.44 26.88-47.36l7.68 3.84c-3.2 8.96-6.4 17.28-11.52 24.96v76.8H953.6v-63.36c-3.84 4.48-8.32 9.6-12.8 14.08z m56.32-40.96l3.2-14.72 8.32 0.64c-1.28 5.12-1.92 9.6-3.2 14.08h34.56v8.32h-37.12l-3.84 13.44h45.44v7.68h-48c-1.92 5.12-3.84 10.24-5.76 14.72h47.36v7.04c-5.12 8.32-12.8 16-23.04 24.32 5.12 3.2 10.88 5.76 15.36 9.6l-4.48 7.04c-14.08-9.6-28.8-17.28-43.52-23.04l4.48-6.4c7.04 2.56 14.08 5.76 20.48 8.96 8.96-6.4 16-12.8 21.76-19.84h-49.28c3.2-7.04 5.76-14.72 8.32-22.4h-19.2V486.4h21.76l3.84-13.44h-20.48v-8.32h23.04zM1152 462.08l-5.12 5.12h14.08v7.68h-35.2c0.64 14.08 2.56 25.6 4.48 33.92 0.64 3.2 1.28 5.76 2.56 8.32 5.76-8.96 10.24-19.84 14.08-32.64l7.68 3.2c-4.48 15.36-10.88 28.16-17.92 38.4 1.92 3.84 3.2 7.04 5.12 9.6 3.84 5.76 7.04 8.32 8.96 8.32 1.92 0 3.84-6.4 5.76-17.92l7.68 3.84c-2.56 15.36-6.4 23.04-12.16 23.04-5.12 0-10.24-3.2-15.36-10.24-1.92-2.56-3.84-5.76-5.76-9.6-8.32 9.6-17.28 16.64-28.16 21.12l-4.48-7.04c11.52-5.12 21.12-12.8 29.44-23.04-1.92-4.48-3.2-8.96-4.48-14.08-2.56-9.6-3.84-21.76-5.12-36.48h-39.68v19.2h28.16c0 19.2-1.28 32-2.56 37.76-1.28 5.12-5.12 7.68-10.88 7.68-2.56 0-6.4 0-9.6-0.64l-2.56-7.68c4.48 0 8.32 0.64 11.52 0.64 2.56 0 3.84-1.92 5.12-5.12 0.64-3.84 1.28-12.16 1.28-24.96h-19.84v5.12c-0.64 20.48-5.12 37.12-13.44 49.92l-6.4-5.76c7.68-10.88 10.88-24.96 11.52-44.16v-38.4h47.36c0-5.76-0.64-11.52-0.64-17.92h8.32c0 6.4 0 12.16 0.64 17.92h21.76c-3.2-3.84-8.32-8.32-14.08-12.8l5.12-5.12c4.48 4.48 8.96 8.32 12.8 12.8zM1176.32 470.4v-7.68h41.6v7.68h-16.64v53.12c6.4-1.92 12.16-3.84 17.92-5.76v8.32c-13.44 5.12-26.88 8.96-42.24 12.16l-1.92-8.32c5.76-1.28 12.16-2.56 17.92-3.84v-55.04h-16.64z m71.04-20.48V473.6h29.44c0 35.84-0.64 58.24-1.92 66.56-1.28 9.6-7.68 14.08-19.84 14.08-1.92 0-5.76 0-10.24-0.64l-1.92-7.68c4.48 0 7.68 0.64 10.88 0.64 7.68 0 12.16-3.2 12.8-9.6 0.64-5.76 1.28-24.32 1.28-55.04h-21.12c-0.64 33.92-9.6 58.88-27.52 74.24l-7.04-5.76c16.64-14.08 25.6-37.12 25.6-68.48h-18.56V473.6h18.56v-23.04h9.6z" fill="#FFFFFF" p-id="9764"></path><path d="M1660.16 125.44m-70.4 0a70.4 70.4 0 1 0 140.8 0 70.4 70.4 0 1 0-140.8 0Z" fill="#2c2c2c" p-id="9765" data-spm-anchor-id="a313x.search_index.0.i10.51933a81kls3Ce" class="selected"></path><path d="M1666.56 125.44l28.16 28.16-6.4 6.4-28.16-28.16L1632 160l-6.4-6.4 28.16-28.16-28.16-28.16 6.4-6.4 28.16 28.16 28.16-28.16 6.4 6.4-28.16 28.16z" fill="#2c2c2c" p-id="9766" data-spm-anchor-id="a313x.search_index.0.i11.51933a81kls3Ce" class="selected"></path></svg>